<?xml version="1.0" encoding="UTF-8"?>
<svg width="23px" height="23px" viewBox="0 0 23 23" version="1.1" xmlns="http://www.w3.org/2000/svg" xmlns:xlink="http://www.w3.org/1999/xlink">
    <title>icon-search</title>
    <g id="icon-search" stroke="none" stroke-width="1" fill="none" fill-rule="evenodd">
        <path d="M21.6815354,20.3183594 L16.1839663,14.8222656 C17.3737387,13.3662109 18.0301649,11.532812 18.0301649,9.53125 C18.0301649,4.81855494 14.2093541,1 9.49662464,1 C4.7838952,1 1,4.81978536 1,9.53125 C1,14.2427146 4.82040888,18.0625 9.49662527,18.0625 C11.4983152,18.0625 13.3346678,17.3689256 14.7890613,16.2151559 L20.2866305,21.7112496 C20.5163799,21.9056646 20.7707443,22 21.021007,22 C21.2712697,22 21.524814,21.9038596 21.717229,21.7116189 C22.100007,21.327344 22.100007,20.703906 21.6815361,20.3183594 L21.6815354,20.3183594 Z M2.96928728,9.53125 C2.96928728,5.91285151 5.91417914,2.96875 9.53354899,2.96875 C13.1529188,2.96875 16.0978107,5.91285151 16.0978107,9.53125 C16.0978107,13.1496485 13.1529188,16.09375 9.53354899,16.09375 C5.91417914,16.09375 2.96928728,13.1488286 2.96928728,9.53125 Z" id="Shape" stroke="#000000" fill="#000000" fill-rule="nonzero"></path>
    </g>
</svg>