<?xml version="1.0" encoding="UTF-8"?>
<svg width="23px" height="23px" viewBox="0 0 23 23" version="1.1" xmlns="http://www.w3.org/2000/svg" xmlns:xlink="http://www.w3.org/1999/xlink">
    <title>icon-close</title>
    <g id="icon-close" stroke="none" stroke-width="1" fill="none" fill-rule="evenodd">
        <g id="close" transform="translate(1.000000, 1.000000)" fill="#000000" fill-rule="nonzero">
            <path d="M20.3815345,17.4171544 C21.2017829,18.2374029 21.2017829,19.5662053 20.3815345,20.3864538 C19.9746905,20.796578 19.4366087,21 18.8985249,21 C18.3604411,21 17.823671,20.7949379 17.4142037,20.3848137 L10.499181,13.4733996 L3.58481508,20.3831736 C3.17469086,20.796578 2.63726393,21 2.09983699,21 C1.56241006,21 1.02563896,20.796578 0.615186325,20.3831736 C-0.205062108,19.5629251 -0.205062108,18.2341227 0.615186325,17.4138742 L7.53152172,10.4975399 L0.615186325,3.58448566 C-0.205062108,2.76423722 -0.205062108,1.43543476 0.615186325,0.615186325 C1.43543476,-0.205062108 2.76423722,-0.205062108 3.58448566,0.615186325 L10.49918,7.53480191 L17.4155143,0.618466518 C18.2357628,-0.201781916 19.5645652,-0.201781916 20.3848137,0.618466518 C21.2050621,1.43871495 21.2050621,2.76751741 20.3848137,3.58776585 L13.4684793,10.5041002 L20.3815335,17.4171544 L20.3815345,17.4171544 Z" id="Path"></path>
        </g>
    </g>
</svg>